<?xml version="1.0" encoding="UTF-8"?>
<!DOCTYPE svg PUBLIC "-//W3C//DTD SVG 1.1//EN" "http://www.w3.org/Graphics/SVG/1.1/DTD/svg11.dtd">
<!-- Creator: CorelDRAW X7 -->
<svg xmlns="http://www.w3.org/2000/svg" xml:space="preserve" width="1.08999in" height="0.456661in" version="1.1" style="shape-rendering:geometricPrecision; text-rendering:geometricPrecision; image-rendering:optimizeQuality; fill-rule:evenodd; clip-rule:evenodd"
viewBox="0 0 1090 457"
 xmlns:xlink="http://www.w3.org/1999/xlink">
 <defs>
  <style type="text/css">
   <![CDATA[
    .fil0 {fill:#475993}
   ]]>
  </style>
 </defs>
 <g id="Layer_x0020_1">
  <metadata id="CorelCorpID_0Corel-Layer"/>
  <path class="fil0" d="M26 0l1033 0c18,0 31,13 31,27l0 399c0,17 -13,31 -31,31l-815 0 0 -164 57 0c5,0 9,-5 9,-9l9 -53c0,-5 -5,-9 -9,-9l-66 0 0 -45c0,-22 8,-35 35,-35l27 0c4,0 8,-5 8,-9l0 -44c0,-9 -4,-14 -8,-14l-45 0c-53,0 -88,36 -88,93l0 54 -40 0c-9,0 -14,4 -14,9 0,13 -4,62 14,62l40 0 0 164 -147 0c-13,0 -26,-14 -26,-31l0 -399c0,-14 13,-27 26,-27zm430 288c5,5 22,9 36,9 35,0 53,-22 53,-44 0,-18 -9,-31 -31,-40 -18,-5 -27,-9 -27,-18 0,-4 5,-13 18,-13 13,0 22,4 31,9l5 -27c-9,-4 -18,-4 -36,-4 -31,0 -49,17 -49,40 0,17 14,31 36,39 18,5 22,9 22,18 0,9 -4,13 -18,13 -13,0 -26,-4 -35,-8l-5 26zm111 -128l0 133 31 0 0 -54 49 0 0 54 31 0 0 -133 -31 0 0 53 -49 0 0 -53 -31 0zm204 102l9 31 35 0 -44 -133 -40 0 -40 133 31 0 9 -31 40 0zm-35 -27l9 -27c4,-8 4,-17 8,-26l0 0c0,9 5,18 5,26l9 27 -31 0zm97 58l27 0 0 -54 9 0c13,0 17,5 22,23 4,17 9,26 9,31l31 0c0,-5 -5,-23 -9,-36 -5,-13 -9,-22 -18,-26l0 0c9,-5 22,-18 22,-31 0,-14 -4,-23 -13,-32 -9,-4 -22,-8 -40,-8 -18,0 -31,0 -40,4l0 129zm27 -111c4,0 9,0 13,0 18,0 22,4 22,18 0,13 -9,22 -22,22l-13 0 0 -40zm168 31l-49 0 0 -27 54 0 0 -26 -85 0 0 133 85 0 0 -23 -54 0 0 -31 49 0 0 -26z"/>
  <g id="_1900167064976">
  </g>
  <g id="_1900167064560">
  </g>
  <g id="_1900167064336">
  </g>
  <g id="_1900167063344">
  </g>
  <g id="_1900167062352">
  </g>
  <g id="_1900167062576">
  </g>
  <g id="_1900167062448">
  </g>
  <g id="_1900167062544">
  </g>
  <g id="_1900167062096">
  </g>
  <g id="_1900167060592">
  </g>
  <g id="_1900167060528">
  </g>
  <g id="_1900167060144">
  </g>
  <g id="_1900167061360">
  </g>
  <g id="_1900167060752">
  </g>
  <g id="_1900167058480">
  </g>
 </g>
</svg>
