<?xml version="1.0" encoding="UTF-8"?>
<!DOCTYPE svg PUBLIC "-//W3C//DTD SVG 1.1//EN" "http://www.w3.org/Graphics/SVG/1.1/DTD/svg11.dtd">
<!-- Creator: CorelDRAW X7 -->
<svg xmlns="http://www.w3.org/2000/svg" xml:space="preserve" width="1.08999in" height="0.456661in" version="1.1" style="shape-rendering:geometricPrecision; text-rendering:geometricPrecision; image-rendering:optimizeQuality; fill-rule:evenodd; clip-rule:evenodd"
viewBox="0 0 1090 457"
 xmlns:xlink="http://www.w3.org/1999/xlink">
 <defs>
  <style type="text/css">
   <![CDATA[
    .fil0 {fill:#76A9EA}
   ]]>
  </style>
 </defs>
 <g id="Layer_x0020_1">
  <metadata id="CorelCorpID_0Corel-Layer"/>
  <path class="fil0" d="M31 0l1028 0c18,0 31,13 31,27l0 399c0,17 -13,31 -31,31l-1028 0c-18,0 -31,-14 -31,-31l0 -399c0,-14 13,-27 31,-27zm386 106c-5,5 -14,9 -23,9 9,-9 14,-22 18,-35l0 0c5,0 0,-5 -4,-5l0 0c-14,9 -27,14 -40,18 0,0 0,0 0,0 -5,0 -9,0 -9,-4 -13,-9 -36,-18 -53,-18 -9,0 -18,0 -27,4 -26,9 -49,31 -53,58 0,9 -4,18 0,27 0,4 0,4 -4,4 0,0 0,0 0,0 0,0 0,0 0,0 -58,-4 -111,-31 -147,-80l0 0c-4,0 -4,0 -9,5l0 0c-4,9 -8,26 -8,40 0,22 8,40 22,57 -5,0 -14,-4 -18,-9l0 0c-4,0 -4,0 -4,5l0 0c0,31 17,62 44,75 0,0 0,0 0,0 -5,0 -9,0 -13,0l0 0c-5,0 -5,0 -5,5l0 0c9,26 36,48 62,53 -22,17 -53,26 -84,26l-9 0c0,0 -4,5 -4,5 0,4 0,4 4,9 31,17 71,31 111,31 35,0 66,-9 93,-23 27,-13 53,-31 71,-53 18,-22 35,-44 44,-71 9,-26 13,-53 13,-79l0 0c0,-5 5,-9 5,-9 13,-14 27,-22 35,-36l0 0c0,-4 -4,-9 -8,-9l0 0zm66 187l31 0 0 -107 35 0 0 -26 -101 0 0 26 35 0 0 107zm142 0l13 -58c4,-13 9,-27 9,-40l0 0c0,18 4,27 9,40l9 58 31 0 35 -133 -31 0 -9 57c-4,14 -4,31 -9,45l0 0c0,-14 -4,-31 -9,-45l-8 -57 -31 0 -14 57c0,14 -4,31 -9,45l0 0c0,-14 -4,-31 -8,-45l-9 -57 -31 0 31 133 31 0zm199 -80l-49 0 0 -27 54 0 0 -26 -80 0 0 133 84 0 0 -23 -58 0 0 -31 49 0 0 -26zm106 0l-48 0 0 -27 53 0 0 -26 -84 0 0 133 88 0 0 -23 -57 0 0 -31 48 0 0 -26zm54 80l31 0 0 -107 35 0 0 -26 -102 0 0 26 36 0 0 107z"/>
  <g id="_1900184293600">
  </g>
  <g id="_1900184290112">
  </g>
  <g id="_1900184291616">
  </g>
  <g id="_1900184291520">
  </g>
  <g id="_1900184291168">
  </g>
  <g id="_1900184289024">
  </g>
  <g id="_1900184288896">
  </g>
  <g id="_1900184289472">
  </g>
  <g id="_1900184289600">
  </g>
  <g id="_1900184287872">
  </g>
  <g id="_1900184287968">
  </g>
  <g id="_1900184285984">
  </g>
  <g id="_1900184287168">
  </g>
  <g id="_1900184286688">
  </g>
  <g id="_1900184286240">
  </g>
 </g>
</svg>
